<svg viewBox="0 0 96 96" xmlns="http://www.w3.org/2000/svg" xmlns:xlink="http://www.w3.org/1999/xlink" id="Icons_Robot" overflow="hidden"><path d="M64.42 72 31.42 72C27.2779 72 23.92 75.3579 23.92 79.5 23.92 83.6421 27.2779 87 31.42 87L64.42 87C68.5621 87 71.92 83.6421 71.92 79.5 71.92 75.3579 68.5621 72 64.42 72ZM33.42 82.5C31.7631 82.5 30.42 81.1569 30.42 79.5 30.42 77.8431 31.7631 76.5 33.42 76.5 35.0769 76.5 36.42 77.8431 36.42 79.5 36.42 81.1569 35.0769 82.5 33.42 82.5ZM47.92 82.5C46.2631 82.5 44.92 81.1569 44.92 79.5 44.92 77.8431 46.2631 76.5 47.92 76.5 49.5769 76.5 50.92 77.8431 50.92 79.5 50.92 81.1569 49.5769 82.5 47.92 82.5ZM62.42 82.5C60.7631 82.5 59.42 81.1569 59.42 79.5 59.42 77.8431 60.7631 76.5 62.42 76.5 64.0769 76.5 65.42 77.8431 65.42 79.5 65.42 81.1569 64.0769 82.5 62.42 82.5Z" fill="#ED7D31"/><circle cx="53.33" cy="28" r="1.5" fill="#ED7D31"/><path d="M56.61 18 50 18 50 13.45C51.9132 12.3454 52.5687 9.89907 51.4641 7.9859 50.3595 6.07273 47.9132 5.41723 46 6.5218 44.0868 7.62637 43.4313 10.0727 44.5359 11.9859 44.887 12.594 45.3919 13.0989 46 13.45L46 18 39.39 18C36.9678 18.0055 35.0055 19.9678 35 22.39L35 33.61C35.0055 36.0322 36.9678 37.9945 39.39 38L56.61 38C59.0322 37.9945 60.9945 36.0322 61 33.61L61 22.39C60.9945 19.9678 59.0322 18.0055 56.61 18ZM43 31C41.3431 31 40 29.6569 40 28 40 26.3431 41.3431 25 43 25 44.6569 25 46 26.3431 46 28 46 29.6569 44.6569 31 43 31ZM53 31C51.3431 31 50 29.6569 50 28 50 26.3431 51.3431 25 53 25 54.6569 25 56 26.3431 56 28 56 29.6569 54.6569 31 53 31Z" fill="#ED7D31"/><circle cx="43.33" cy="28" r="1.5" fill="#ED7D31"/><path d="M74 58.82 74 50.49C74 48.0102 71.9898 46 69.51 46L64 46 64 41 32 41 32 47 24.49 47C24.2194 47 24 46.7806 24 46.51L24 38.22C27.4376 37.2048 29.4013 33.5951 28.3861 30.1576 28.1139 29.236 27.6405 28.3864 27 27.67L24 30.33C24.4196 30.7863 24.6579 31.3802 24.67 32 24.6625 33.3807 23.5371 34.4939 22.1564 34.4864 20.7757 34.4788 19.6626 33.3535 19.6701 31.9728 19.6733 31.3764 19.8896 30.8009 20.28 30.35L17.28 27.72C14.9231 30.4278 15.2076 34.5335 17.9154 36.8904 18.528 37.4236 19.235 37.8373 20 38.11L20 46.51C20 48.9898 22.0102 51 24.49 51L32 51 32 69 64 69 64 50 69.51 50C69.7806 50 70 50.2194 70 50.49L70 58.82C66.5844 59.9249 64.7113 63.5895 65.8162 67.0051 66.0928 67.8599 66.5435 68.6481 67.14 69.32L70.14 66.66C69.7262 66.2064 69.4978 65.614 69.5 65 69.5012 63.6193 70.6214 62.5009 72.0021 62.5021 73.3828 62.5033 74.5012 63.6235 74.5 65.0042 74.4995 65.6098 74.2792 66.1946 73.88 66.65L76.88 69.28C79.2461 66.5876 78.9816 62.4869 76.2892 60.1208 75.6231 59.5353 74.8439 59.0926 74 58.82ZM60 55 57.22 55C57.1233 55.0173 57.0313 55.0548 56.95 55.11L53.89 58.24 51.56 52.72 47.21 61.72 44.16 50 41.81 55 37 55 37 53 40.54 53 44.7 44.15 47.78 55.93 51.69 47.93 54.57 54.75 55.57 53.75C56.0091 53.3056 56.5965 53.0386 57.22 53L60 53Z" fill="#ED7D31"/></svg>